<svg xmlns="http://www.w3.org/2000/svg" width="512" height="512" viewBox="0 0 200 200"><g transform="matrix(0.99522 -0.09761 0.09761 0.99522 -11.137 11.258)"><path d="M28.00 148.00 C26.01 121.88 33.26 104.34 46.32 98.16 C51.19 96.31 52.48 85.55 54.50 72.80 C56.30 60.31 58.84 45.86 66.41 36.43 C75.91 24.45 99.56 27.92 100.23 43.77 C100.01 52.62 98.87 62.28 98.81 70.92 C98.72 79.54 99.65 87.11 103.89 91.97 L126 94 L144 96 L144 186 L70 190 C44 190 30 172 28 148 Z" fill="#FCD14D" stroke="#0B3B4A" stroke-width="7" stroke-linejoin="round" stroke-linecap="round"/><rect x="114" y="162" width="56" height="27" rx="13.5" fill="#FCD14D" stroke="#0B3B4A" stroke-width="7" stroke-linejoin="round" stroke-linecap="round"/><rect x="114" y="138" width="64" height="28" rx="14" fill="#FCD14D" stroke="#0B3B4A" stroke-width="7" stroke-linejoin="round" stroke-linecap="round"/><rect x="114" y="113" width="68" height="29" rx="14.5" fill="#FCD14D" stroke="#0B3B4A" stroke-width="7" stroke-linejoin="round" stroke-linecap="round"/><rect x="112" y="87" width="70" height="30" rx="15" fill="#FCD14D" stroke="#0B3B4A" stroke-width="7" stroke-linejoin="round" stroke-linecap="round"/><path d="M128 96 H164" stroke="#FFFFFF" stroke-width="5" stroke-linecap="round" opacity="0.55"/><path d="M28.00 148.00 C26.01 121.88 33.26 104.34 46.32 98.16 C51.19 96.31 52.48 85.55 54.50 72.80 C56.30 60.31 58.84 45.86 66.41 36.43 C75.91 24.45 99.56 27.92 100.23 43.77 C100.01 52.62 98.87 62.28 98.81 70.92 C98.72 79.54 99.65 87.11 103.89 91.97 L103.89 106 L52 114 Z" fill="#FCD14D"/><path d="M28.00 148.00 C26.01 121.88 33.26 104.34 46.32 98.16 C51.19 96.31 52.48 85.55 54.50 72.80 C56.30 60.31 58.84 45.86 66.41 36.43 C75.91 24.45 99.56 27.92 100.23 43.77 C100.01 52.62 98.87 62.28 98.81 70.92 C98.72 79.54 99.65 87.11 103.89 91.97" fill="none" stroke="#0B3B4A" stroke-width="7" stroke-linejoin="round" stroke-linecap="round"/><ellipse transform="rotate(4.0 74.73 47.43)" cx="74.73" cy="47.43" rx="4.5" ry="10" fill="#FFFFFF" opacity="0.750"/><path d="M92 66 C100 63 108 64 114 68" stroke="#FFFFFF" stroke-width="5" stroke-linecap="round" fill="none" opacity="0.000"/><ellipse cx="58" cy="140.03" rx="8" ry="5.71" fill="#0B3B4A" opacity="1.000"/><ellipse cx="88" cy="140.03" rx="8" ry="5.71" fill="#0B3B4A" opacity="1.000"/><ellipse cx="50" cy="158" rx="8.5" ry="5" fill="#FF8FA3" opacity="0.489"/><path d="M45.5 160 l2.6 -4 M50 160 l2.6 -4 M54.5 160 l2.6 -4" stroke="#E2546C" stroke-width="1.6" stroke-linecap="round" opacity="0.476"/><ellipse cx="97" cy="158" rx="8.5" ry="5" fill="#FF8FA3" opacity="0.489"/><path d="M92.5 160 l2.6 -4 M97 160 l2.6 -4 M101.5 160 l2.6 -4" stroke="#E2546C" stroke-width="1.6" stroke-linecap="round" opacity="0.476"/><path d="M66.67 156.13 C70.00 160.47 76.00 160.47 79.33 156.13" stroke="#0B3B4A" stroke-width="5" stroke-linecap="round" stroke-linejoin="round" fill="none"/></g></svg>