<svg xmlns="http://www.w3.org/2000/svg" width="512" height="512" viewBox="0 0 200 200"><g transform="matrix(0.99033 0.13873 -0.13873 0.99033 16.270 -19.346)"><path d="M28.00 148.00 C26.50 127.99 28.61 115.98 33.42 110.48 C45.61 96.67 57.79 82.84 69.97 69.01 C74.37 63.99 78.96 59.97 83.97 57.96 C99.95 49.95 121.96 55.95 131.94 69.95 C137.93 78.95 136.93 87.95 130.94 92.96 C123.95 96.97 109.98 95.98 100.01 91.00 L126 94 L144 96 L144 186 L70 190 C44 190 30 172 28 148 Z" fill="#F4EAC2" stroke="#0B3B4A" stroke-width="7" stroke-linejoin="round" stroke-linecap="round"/><rect x="114" y="162" width="56" height="27" rx="13.5" fill="#F4EAC2" stroke="#0B3B4A" stroke-width="7" stroke-linejoin="round" stroke-linecap="round"/><rect x="114" y="138" width="64" height="28" rx="14" fill="#F4EAC2" stroke="#0B3B4A" stroke-width="7" stroke-linejoin="round" stroke-linecap="round"/><rect x="114" y="113" width="68" height="29" rx="14.5" fill="#F4EAC2" stroke="#0B3B4A" stroke-width="7" stroke-linejoin="round" stroke-linecap="round"/><rect x="112" y="87" width="70" height="30" rx="15" fill="#F4EAC2" stroke="#0B3B4A" stroke-width="7" stroke-linejoin="round" stroke-linecap="round"/><path d="M128 96 H164" stroke="#FFFFFF" stroke-width="5" stroke-linecap="round" opacity="0.55"/><path d="M28.00 148.00 C26.50 127.99 28.61 115.98 33.42 110.48 C45.61 96.67 57.79 82.84 69.97 69.01 C74.37 63.99 78.96 59.97 83.97 57.96 C99.95 49.95 121.96 55.95 131.94 69.95 C137.93 78.95 136.93 87.95 130.94 92.96 C123.95 96.97 109.98 95.98 100.01 91.00 L100.01 106 L52 114 Z" fill="#F4EAC2"/><path d="M28.00 148.00 C26.50 127.99 28.61 115.98 33.42 110.48 C45.61 96.67 57.79 82.84 69.97 69.01 C74.37 63.99 78.96 59.97 83.97 57.96 C99.95 49.95 121.96 55.95 131.94 69.95 C137.93 78.95 136.93 87.95 130.94 92.96 C123.95 96.97 109.98 95.98 100.01 91.00" fill="none" stroke="#0B3B4A" stroke-width="7" stroke-linejoin="round" stroke-linecap="round"/><ellipse transform="rotate(4.0 102.95 61.97)" cx="102.95" cy="61.97" rx="4.5" ry="10" fill="#FFFFFF" opacity="0.000"/><path d="M92 66 C100 63 108 64 114 68" stroke="#FFFFFF" stroke-width="5" stroke-linecap="round" fill="none" opacity="0.700"/><path d="M51.50 134.50 L64.50 147.50 M64.50 134.50 L51.50 147.50" stroke="#0B3B4A" stroke-width="5" stroke-linecap="round" stroke-linejoin="round" fill="none" opacity="1.000"/><path d="M81.50 134.50 L94.50 147.50 M94.50 134.50 L81.50 147.50" stroke="#0B3B4A" stroke-width="5" stroke-linecap="round" stroke-linejoin="round" fill="none" opacity="1.000"/><path d="M64.50 157.00 C70.00 157.00 76.00 157.00 81.50 157.00" stroke="#0B3B4A" stroke-width="5" stroke-linecap="round" stroke-linejoin="round" fill="none"/><g transform="translate(0 157.5) scale(1 0.933) translate(0 -157.5)"><path d="M69 157.5 V162.5 A4 4 0 0 0 77 162.5 V157.5 Z" fill="#FF8FA3" stroke="#0B3B4A" stroke-width="3.2" stroke-linejoin="round"/><path d="M73 158.5 V162" stroke="#E2546C" stroke-width="1.6" stroke-linecap="round"/></g></g></svg>