<svg xmlns="http://www.w3.org/2000/svg" width="512" height="512" viewBox="0 0 200 200"><g transform="matrix(0.99107 0.13335 -0.13335 0.99107 15.642 -18.645)"><path d="M28.00 148.00 C26.49 127.85 28.72 115.71 33.72 110.19 C45.74 96.66 57.67 82.90 69.62 69.09 C73.95 63.91 78.50 59.65 83.56 57.47 C99.40 49.37 121.44 55.31 131.21 69.35 C137.06 78.35 136.06 87.36 130.20 92.45 C123.37 96.57 109.74 95.78 100.10 91.02 L126 94 L144 96 L144 186 L70 190 C44 190 30 172 28 148 Z" fill="#FFC928" stroke="#0B3B4A" stroke-width="7" stroke-linejoin="round" stroke-linecap="round"/><rect x="114" y="162" width="56" height="27" rx="13.5" fill="#FFC928" stroke="#0B3B4A" stroke-width="7" stroke-linejoin="round" stroke-linecap="round"/><rect x="114" y="138" width="64" height="28" rx="14" fill="#FFC928" stroke="#0B3B4A" stroke-width="7" stroke-linejoin="round" stroke-linecap="round"/><rect x="114" y="113" width="68" height="29" rx="14.5" fill="#FFC928" stroke="#0B3B4A" stroke-width="7" stroke-linejoin="round" stroke-linecap="round"/><rect x="112" y="87" width="70" height="30" rx="15" fill="#FFC928" stroke="#0B3B4A" stroke-width="7" stroke-linejoin="round" stroke-linecap="round"/><path d="M128 96 H164" stroke="#FFFFFF" stroke-width="5" stroke-linecap="round" opacity="0.55"/><path d="M28.00 148.00 C26.49 127.85 28.72 115.71 33.72 110.19 C45.74 96.66 57.67 82.90 69.62 69.09 C73.95 63.91 78.50 59.65 83.56 57.47 C99.40 49.37 121.44 55.31 131.21 69.35 C137.06 78.35 136.06 87.36 130.20 92.45 C123.37 96.57 109.74 95.78 100.10 91.02 L100.10 106 L52 114 Z" fill="#FFC928"/><path d="M28.00 148.00 C26.49 127.85 28.72 115.71 33.72 110.19 C45.74 96.66 57.67 82.90 69.62 69.09 C73.95 63.91 78.50 59.65 83.56 57.47 C99.40 49.37 121.44 55.31 131.21 69.35 C137.06 78.35 136.06 87.36 130.20 92.45 C123.37 96.57 109.74 95.78 100.10 91.02" fill="none" stroke="#0B3B4A" stroke-width="7" stroke-linejoin="round" stroke-linecap="round"/><ellipse transform="rotate(4.0 102.30 61.64)" cx="102.30" cy="61.64" rx="4.5" ry="10" fill="#FFFFFF" opacity="0.000"/><path d="M92 66 C100 63 108 64 114 68" stroke="#FFFFFF" stroke-width="5" stroke-linecap="round" fill="none" opacity="0.700"/><g transform="translate(0.00 0)"><ellipse cx="58" cy="140.98" rx="8.00" ry="1.20" fill="#0B3B4A" opacity="0.080"/><path d="M50 139.48 Q58 146.48 66 139.48" stroke="#0B3B4A" stroke-width="5" stroke-linecap="round" fill="none" opacity="0.931"/><ellipse cx="88" cy="140.98" rx="8.00" ry="1.20" fill="#0B3B4A" opacity="0.080"/><path d="M80 139.48 Q88 146.48 96 139.48" stroke="#0B3B4A" stroke-width="5" stroke-linecap="round" fill="none" opacity="0.931"/><ellipse cx="50.00" cy="158.00" rx="8.5" ry="5" fill="#FF8FA3" opacity="0.72"/><path d="M45.50 160.00 l2.6 -4 M50.00 160.00 l2.6 -4 M54.50 160.00 l2.6 -4" stroke="#E2546C" stroke-width="1.6" stroke-linecap="round" opacity="0.7"/><ellipse cx="97.00" cy="158.00" rx="8.5" ry="5" fill="#FF8FA3" opacity="0.72"/><path d="M92.50 160.00 l2.6 -4 M97.00 160.00 l2.6 -4 M101.50 160.00 l2.6 -4" stroke="#E2546C" stroke-width="1.6" stroke-linecap="round" opacity="0.7"/><path d="M67.98 156.98 C70.98 161.00 75.02 161.00 78.02 156.98 C75.02 161.00 70.98 161.00 67.98 156.98 Z" fill="#0B3B4A" stroke="#0B3B4A" stroke-width="5.00" stroke-linejoin="round" stroke-linecap="round"/></g></g></svg>